<mxfile host="app.diagrams.net" modified="2023-07-16T05:53:30.060Z" agent="Mozilla/5.0 (X11; Linux x86_64) AppleWebKit/537.36 (KHTML, like Gecko) Chrome/110.0.0.0 Safari/537.36" version="21.6.2" etag="Ow2Rti1hiuoM1zWr06dL" type="github">
  <diagram name="Page-1" id="cDkM2sG-iscp0ET_lPoU">
    <mxGraphModel>
      <root>
        <mxCell id="0" />
        <mxCell id="1" parent="0" />
      </root>
    </mxGraphModel>
  </diagram>
</mxfile>
